<svg aria-hidden="true" style="position: absolute; width: 0; height: 0; overflow: hidden;"
    version="1.1" xmlns="http://www.w3.org/2000/svg" xmlns:xlink="http://www.w3.org/1999/xlink">
    <defs>
        <symbol id="instagram" viewBox="0 0 24 24">
            <path
                d="M17 2H7C4.23858 2 2 4.23858 2 7V17C2 19.7614 4.23858 22 7 22H17C19.7614 22 22 19.7614 22 17V7C22 4.23858 19.7614 2 17 2Z"
                stroke-width="2" stroke-linecap="round" stroke-linejoin="round" />
            <path
                d="M16 11.3701C16.1234 12.2023 15.9812 13.0523 15.5937 13.7991C15.2062 14.5459 14.5931 15.1515 13.8416 15.5297C13.0901 15.908 12.2384 16.0397 11.4077 15.906C10.5771 15.7723 9.80971 15.3801 9.21479 14.7852C8.61987 14.1903 8.22768 13.4229 8.09402 12.5923C7.96035 11.7616 8.09202 10.91 8.47028 10.1584C8.84854 9.40691 9.45414 8.7938 10.2009 8.4063C10.9477 8.0188 11.7977 7.87665 12.63 8.00006C13.4789 8.12594 14.2648 8.52152 14.8716 9.12836C15.4785 9.73521 15.8741 10.5211 16 11.3701Z"
                stroke-width="2" stroke-linecap="round" stroke-linejoin="round" />
            <path
                d="M16 11.3701C16.1234 12.2023 15.9812 13.0523 15.5937 13.7991C15.2062 14.5459 14.5931 15.1515 13.8416 15.5297C13.0901 15.908 12.2384 16.0397 11.4077 15.906C10.5771 15.7723 9.80971 15.3801 9.21479 14.7852C8.61987 14.1903 8.22768 13.4229 8.09402 12.5923C7.96035 11.7616 8.09202 10.91 8.47028 10.1584C8.84854 9.40691 9.45414 8.7938 10.2009 8.4063C10.9477 8.0188 11.7977 7.87665 12.63 8.00006C13.4789 8.12594 14.2648 8.52152 14.8716 9.12836C15.4785 9.73521 15.8741 10.5211 16 11.3701Z"
                stroke-width="2" stroke-linecap="round" stroke-linejoin="round" />
            <path d="M17.5 6.5H17.51" stroke="" stroke-width="2" stroke-linecap="round"
                stroke-linejoin="round" />
            <path d="M17.5 6.5H17.51" stroke-width="2" stroke-linecap="round"
                stroke-linejoin="round" />
        </symbol>
        <symbol id="twitter" viewBox="0 0 24 24">
            <path id="Vector"
                d="M23 3.00005C22.0424 3.67552 20.9821 4.19216 19.86 4.53005C19.2577 3.83756 18.4573 3.34674 17.567 3.12397C16.6767 2.90121 15.7395 2.95724 14.8821 3.2845C14.0247 3.61176 13.2884 4.19445 12.773 4.95376C12.2575 5.71308 11.9877 6.61238 12 7.53005V8.53005C10.2426 8.57561 8.50127 8.18586 6.93101 7.39549C5.36074 6.60513 4.01032 5.43868 3 4.00005C3 4.00005 -1 13 8 17C5.94053 18.398 3.48716 19.099 1 19C10 24 21 19 21 7.50005C20.9991 7.2215 20.9723 6.94364 20.92 6.67005C21.9406 5.66354 22.6608 4.39276 23 3.00005Z"
                stroke-width="2" stroke-linecap="round" stroke-linejoin="round" />
        </symbol>
        <symbol id="line" viewBox="0 0 704 1">
            <line x1="704" y1="0.5" y2="0.5" stroke="" stroke-opacity="0.1" />
        </symbol>
        <symbol id="close" viewBox="0 0 8 8">
            <path
                d="M8 0.805714L7.19429 0L4 3.19429L0.805714 0L0 0.805714L3.19429 4L0 7.19429L0.805714 8L4 4.80571L7.19429 8L8 7.19429L4.80571 4L8 0.805714Z"
            />
        </symbol>
        <symbol id="top-close" viewBox="0 0 8 8">
            <path
                d="M8 0.805714L7.19429 0L4 3.19429L0.805714 0L0 0.805714L3.19429 4L0 7.19429L0.805714 8L4 4.80571L7.19429 8L8 7.19429L4.80571 4L8 0.805714Z"
            />
        </symbol>
        <symbol id="adline1" viewBox="0 0 1 125">
            <line x1="0.5" y1="-2.18557e-08" x2="0.500005" y2="124"
                stroke-opacity="0.5" />
        </symbol>
        <symbol id="adline2" viewBox="0 0 1 125">
            <line x1="0.5" y1="0.5" x2="0.500005" y2="124.5" stroke-opacity="0.5" />
        </symbol>
        <symbol id="topsellerbuynowflag" viewBix="0 0 32 35">
            <path d="M31.8318 1.05835H0.242676V24.5665H31.8318V1.05835Z" fill="#FFD700" />
            <path fill-rule="evenodd" clip-rule="evenodd"
                d="M0.242676 1.05835H31.8318V12.8124H0.242676V1.05835Z" fill="#0057B7" />
        </symbol>
        <symbol id="leaveareviewflag" viewBox="">
            <path d="M31.8318 1.05835H0.242676V24.5665H31.8318V1.05835Z" fill="#FFD700" />
            <path fill-rule="evenodd" clip-rule="evenodd"
                d="M0.242676 1.05835H31.8318V12.8124H0.242676V1.05835Z" fill="#0057B7" />
        </symbol>
        <symbol id="topsellerbuynow-x-close" viewBox="0 0 28 28">
            <path d="M21 7L7 21" stroke="#111111" stroke-width="2" stroke-linecap="round"
                stroke-linejoin="round" />
            <path d="M7 7L21 21" stroke="#111111" stroke-width="2" stroke-linecap="round"
                stroke-linejoin="round" />
        </symbol>
        <symbol id="leaveareview-x-close" viewBox="0 0 28 28">
            <path d="M21 7L7 21" stroke="#111111" stroke-width="2" stroke-linecap="round"
                stroke-linejoin="round" />
            <path d="M7 7L21 21" stroke="#111111" stroke-width="2" stroke-linecap="round"
                stroke-linejoin="round" />
        </symbol>
        <symbol id="mastercard" viewBox="0 0 44 30">
            <path fill-rule="evenodd" clip-rule="evenodd"
                d="M22 21.8343C20.4022 23.2053 18.3295 24.033 16.0647 24.033C11.0111 24.033 6.91431 19.9122 6.91431 14.829C6.91431 9.74576 11.0111 5.625 16.0647 5.625C18.3295 5.625 20.4022 6.45267 22 7.82371C23.5979 6.45267 25.6705 5.625 27.9354 5.625C32.989 5.625 37.0857 9.74576 37.0857 14.829C37.0857 19.9122 32.989 24.033 27.9354 24.033C25.6705 24.033 23.5979 23.2053 22 21.8343Z"
                fill="#ED0006" />
            <path fill-rule="evenodd" clip-rule="evenodd"
                d="M22 21.8343C23.9674 20.1461 25.215 17.6341 25.215 14.829C25.215 12.0239 23.9674 9.51189 22 7.82371C23.5978 6.45267 25.6705 5.625 27.9354 5.625C32.989 5.625 37.0857 9.74576 37.0857 14.829C37.0857 19.9122 32.989 24.033 27.9354 24.033C25.6705 24.033 23.5978 23.2053 22 21.8343Z"
                fill="#F9A000" />
            <path fill-rule="evenodd" clip-rule="evenodd"
                d="M22.0001 21.8343C23.9675 20.1462 25.2151 17.6342 25.2151 14.8291C25.2151 12.024 23.9675 9.51203 22.0001 7.82385C20.0327 9.51203 18.7852 12.024 18.7852 14.8291C18.7852 17.6342 20.0327 20.1462 22.0001 21.8343Z"
                fill="#FF5E00" />

        </symbol>
    </defs>
</svg>